<svg id="Capa_1" enable-background="new 0 0 512 512" height="512" viewBox="0 0 512 512" width="512" xmlns="http://www.w3.org/2000/svg"><g><path d="m448 128v320l-224-18.07-224 18.07v-320l224 22.4z" fill="#ffd500"/><path d="m448 128v320l-224-18.07v-279.53z" fill="#ffa000"/><path d="m448 448h-448l186.67-160h74.66z" fill="#ffa000"/><path d="m448 448h-224v-160h37.33z" fill="#ff702a"/><path d="m448 128-224 192-224-192z" fill="#fff560"/><path d="m448 128-224 192v-192z" fill="#ffd500"/><circle cx="416" cy="160" fill="#fd625f" r="96"/><path d="m512 160c0 53.02-42.98 96-96 96v-192c53.02 0 96 42.98 96 96z" fill="#db3471"/><path d="m431 114.88v90.25h-30v-60.25h-14.12v-30z" fill="#fff5f5"/><path d="m416 114.88h15v90.25h-15z" fill="#e1ebf0"/></g></svg>