<?xml version="1.0" encoding="iso-8859-1"?>
<!-- Generator: Adobe Illustrator 22.1.0, SVG Export Plug-In . SVG Version: 6.00 Build 0)  -->
<svg xmlns="http://www.w3.org/2000/svg" xmlns:xlink="http://www.w3.org/1999/xlink" version="1.1" id="Layer_1_1_" x="0px" y="0px" viewBox="0 0 64 64" style="enable-background:new 0 0 64 64;" xml:space="preserve" width="512" height="512">
<linearGradient id="SVGID_1_" gradientUnits="userSpaceOnUse" x1="32" y1="63" x2="32" y2="1">
	<stop offset="0" style="stop-color:#9F2FFF"/>
	<stop offset="1" style="stop-color:#0BB1D3"/>
</linearGradient>
<path style="fill:url(#SVGID_1_);" d="M60,31h-7v-8h-8v-2H35v10h-6v-3.228c0-2.072-1.304-3.954-3.245-4.683L21,21.307V20.46  c0.757-0.679,1.34-1.545,1.675-2.528C24.559,17.609,26,15.975,26,14v-4c0-4.963-4.038-9-9-9s-9,4.037-9,9v4  c0,1.975,1.441,3.609,3.325,3.932C11.66,18.914,12.243,19.78,13,20.46v0.847L8.245,23.09C6.304,23.818,5,25.7,5,27.772V31H4  c-1.654,0-3,1.346-3,3v2c0,1.654,1.346,3,3,3v24h56V39c1.654,0,3-1.346,3-3v-2C63,32.346,61.654,31,60,31z M51,25v6h-6v-6H51z   M37,23h6v8h-6V23z M17,20c-2.206,0-4-1.794-4-4v-4.071c1.731-0.159,3.397-0.702,4.871-1.644l0.008,0.008  c0.861,0.861,1.945,1.414,3.121,1.617V16C21,18.206,19.206,20,17,20z M23,15.722v-3.444c0.595,0.347,1,0.985,1,1.722  S23.595,15.375,23,15.722z M17,3c3.86,0,7,3.141,7,7v0.556C23.409,10.212,22.732,10,22,10c-1.022,0-1.984-0.398-2.707-1.121  l-1.166-1.166l-1.186,0.791C15.473,9.482,13.765,10,12,10c-0.732,0-1.409,0.212-2,0.556V10C10,6.141,13.14,3,17,3z M10,14  c0-0.737,0.405-1.375,1-1.722v3.444C10.405,15.375,10,14.737,10,14z M17,22c0.702,0,1.373-0.128,2-0.35V22c0,1.103-0.897,2-2,2  s-2-0.897-2-2v-0.35C15.627,21.872,16.298,22,17,22z M7,27.772c0-1.244,0.782-2.373,1.947-2.81l4.304-1.614  C13.807,24.89,15.27,26,17,26s3.193-1.11,3.749-2.651l4.304,1.614C26.218,25.399,27,26.528,27,27.772V31h-2v-4h-2v4H11v-4H9v4H7  V27.772z M58,61H6V39h52V61z M61,36c0,0.552-0.449,1-1,1H4c-0.551,0-1-0.448-1-1v-2c0-0.552,0.449-1,1-1h56c0.551,0,1,0.448,1,1V36z   M44,59h6v-6h6v-6h-6v-6h-6v6h-6v6h6V59z M40,51v-2h6v-6h2v6h6v2h-6v6h-2v-6H40z M32,43H8v-2h24V43z M30,45h2v2h-2V45z M12,47v-2h16  v2H12z M10,47H8v-2h2V47z M8,51v-2h24v2H8z M31,19h32V1H31V19z M45,9h6v8h-6V9z M53,11h4v6h-4V11z M43,17h-6V7h6V17z M33,3h28v14h-2  V9h-6V7h-8V5H35v12h-2V3z"/>
</svg>
